<svg width="19" height="19" viewBox="0 0 19 19" fill="none" xmlns="http://www.w3.org/2000/svg">
<g id="heart-solid" clip-path="url(#clip0_24_832)">
<path id="Vector" d="M6.20374 2.00627C3.43007 2.00627 1.68964 4.42489 1.68964 6.89655C1.68964 9.41028 2.94918 11.5606 4.52714 13.2386C6.10752 14.9192 8.0673 16.193 9.62904 16.9739C9.84084 17.0798 10.0902 17.0798 10.302 16.9739C11.8637 16.193 13.8235 14.9192 15.4039 13.2386C16.9818 11.5606 18.2414 9.41028 18.2414 6.89655C18.2414 4.42894 16.5327 2.00627 13.7273 2.00627C12.4294 2.00627 11.5102 2.36724 10.8071 2.91644C10.4759 3.1751 10.1995 3.47344 9.96352 3.76406C9.72491 3.47282 9.44567 3.17442 9.11151 2.91503C8.40721 2.36834 7.48938 2.00627 6.20374 2.00627Z" fill="#F45656"/>
</g>
<defs>
<clipPath id="clip0_24_832">
<rect width="18.0564" height="18.0564" fill="white" transform="translate(0.937286 0.501556)"/>
</clipPath>
</defs>
</svg>
